<?xml version="1.0" encoding="UTF-8" standalone="no"?>
<svg
   viewBox="-8 -1 24 24"
   width="24"
   fill="rgba(124,240,10,0.0)"
   version="1.1"
   id="svg1"
   sodipodi:docname="icon.svg"
   style="background-color:blue"
   inkscape:version="1.3.2 (091e20e, 2023-11-25)"
   xmlns:inkscape="http://www.inkscape.org/namespaces/inkscape"
   xmlns:sodipodi="http://sodipodi.sourceforge.net/DTD/sodipodi-0.dtd"
   xmlns="http://www.w3.org/2000/svg"
   xmlns:svg="http://www.w3.org/2000/svg">
  <defs
     id="defs1" />
  <sodipodi:namedview
     id="namedview1"
     pagecolor="#ffffff"
     bordercolor="#000000"
     borderopacity="0.25"
     inkscape:showpageshadow="2"
     inkscape:pageopacity="0.0"
     inkscape:pagecheckerboard="0"
     inkscape:deskcolor="#d1d1d1"
     inkscape:zoom="9.8333333"
     inkscape:cx="11.949153"
     inkscape:cy="12"
     inkscape:window-width="1920"
     inkscape:window-height="1027"
     inkscape:window-x="0"
     inkscape:window-y="25"
     inkscape:window-maximized="0"
     inkscape:current-layer="svg1" />
  <rect
     id="rect1"
     width="24"
     height="24"
     x="-8"
     y="-1"
     fill="#0a1633"
     rx="6" />
  <path
     d="M 0.05084742,10.050847 H 8.0508474 v 1.000001 a 2,2 0 0 1 -1.3499999,1.892 l -0.508,7.113 a 2.148,2.148 0 0 1 -4.2840001,0 l -0.509,-7.113 a 2,2 0 0 1 -1.34899998,-1.892 z M 7.5158474,8.0508474 h 0.535 -7.99999998 0.535 a 3.982,3.982 0 0 1 -0.535,-2 c 0,-1.473 1.33299998,-3.473 3.99999998,-5.99999995 2.6670001,2.52699995 4,4.52699995 4,5.99999995 0,0.729 -0.195,1.412 -0.535,2 z"
     id="path1-7"
     fill="#fef9c3">
    <path
       d="M2 10v1l1.25.43.602 8.433a.148.148 0 0 0 .296 0l.602-8.433L6 11v-1H2zM.535 8A3.982 3.982 0 0 1 0 6c0-1.473 1.333-3.473 4-6 2.667 2.527 4 4.527 4 6 0 .729-.195 1.412-.535 2H8v3a2 2 0 0 1-1.35 1.892l-.508 7.113a2.148 2.148 0 0 1-4.284 0l-.509-7.113A2 2 0 0 1 0 11V8h.535zm2.13-3.495C2.196 5.205 2 5.719 2 6a2 2 0 1 0 4 0c0-.281-.197-.795-.664-1.495-.333-.5-.779-1.056-1.336-1.663a14.084 14.084 0 0 0-1.336 1.663z"
       id="path1"
       fill="#fef9c3" />
  </path>
</svg>
